<svg width="28" height="28" viewBox="0 0 28 28" fill="none" xmlns="http://www.w3.org/2000/svg">
<path d="M16.7989 3.94972C18.7516 1.9971 21.9174 1.9971 23.87 3.94972V3.94972C25.8226 5.90234 25.8226 9.06816 23.87 11.0208L13.2634 21.6274C11.3108 23.58 8.14496 23.58 6.19234 21.6274V21.6274C4.23972 19.6748 4.23972 16.5089 6.19234 14.5563L16.7989 3.94972Z" fill="#F9F9F9"/>
<path fill-rule="evenodd" clip-rule="evenodd" d="M16.7989 3.94972L6.19234 14.5563C4.23972 16.5089 4.23972 19.6748 6.19234 21.6274C8.14496 23.58 11.3108 23.58 13.2634 21.6274L23.87 11.0208C25.8226 9.06816 25.8226 5.90234 23.87 3.94972C21.9174 1.9971 18.7516 1.9971 16.7989 3.94972ZM22.4558 9.60657C23.6274 8.435 23.6274 6.5355 22.4558 5.36393C21.2842 4.19236 19.3847 4.19236 18.2132 5.36393L7.60655 15.9705C5.65393 17.9232 5.02076 20.4558 6.19234 21.6274C7.36391 22.799 9.89657 22.1658 11.8492 20.2132L22.4558 9.60657Z" fill="#E2E2E2"/>
<path d="M3.18612 22.1091C2.67379 23.6675 4.15226 25.146 5.71068 24.6336L11.6331 22.6867C13.049 22.2212 13.4766 20.4263 12.4227 19.3725L8.44726 15.397C7.3934 14.3431 5.59853 14.7708 5.13308 16.1866L3.18612 22.1091Z" fill="#F9F9F9"/>
<path fill-rule="evenodd" clip-rule="evenodd" d="M11.0085 20.7867L5.08608 22.7337L7.03305 16.8112L11.0085 20.7867ZM5.71068 24.6336C4.15226 25.146 2.67379 23.6675 3.18612 22.1091L5.13308 16.1866C5.59853 14.7708 7.3934 14.3431 8.44726 15.397L12.4227 19.3725C13.4766 20.4263 13.049 22.2212 11.6331 22.6867L5.71068 24.6336Z" fill="#E2E2E2"/>
<path fill-rule="evenodd" clip-rule="evenodd" d="M21.0416 12.435L15.3847 6.77817L16.799 5.36395L22.4558 11.0208L21.0416 12.435Z" fill="#E2E2E2"/>
</svg>
